HIERARCHY
ROOT Hips
{
	OFFSET 0.000000 35.082581 0.000000
	CHANNELS 6 Xposition Yposition Zposition Xrotation Yrotation Zrotation 
	JOINT Spine
	{
		OFFSET 0.000000 6.876099 0.125700
		CHANNELS 3 Xrotation Yrotation Zrotation
		JOINT Spine1
		{
			OFFSET 0.000000 5.730043 0.104720
			CHANNELS 3 Xrotation Yrotation Zrotation
			JOINT Spine1_split
			{
				OFFSET 0.000000 5.730043 0.104720
				CHANNELS 3 Xrotation Yrotation Zrotation
				JOINT Spine2
				{
					OFFSET 0.000000 5.730043 0.104720
					CHANNELS 3 Xrotation Yrotation Zrotation
					JOINT Neck
					{
						OFFSET 0.000000 10.314075 0.188496
						CHANNELS 3 Xrotation Yrotation Zrotation
						JOINT Head
						{
							OFFSET 0.000000 7.643700 -2.377400
							CHANNELS 3 Xrotation Yrotation Zrotation
							JOINT HeadTop_End
							{
								OFFSET 0.000000 43.788605 -13.619600
								CHANNELS 3 Xrotation Yrotation Zrotation
								End Site
								{
									OFFSET 0.000000 0.000000 0.000000
								}
							}
						}
					}
					JOINT LeftShoulder
					{
						OFFSET 2.196100 4.412489 0.087492
						CHANNELS 3 Xrotation Yrotation Zrotation
						JOINT LeftShoulder_split
						{
							OFFSET 2.196100 4.412489 0.087492
							CHANNELS 3 Xrotation Yrotation Zrotation
							JOINT LeftArm
							{
								OFFSET 8.771219 -2.981674 -0.026999
								CHANNELS 3 Xrotation Yrotation Zrotation
								JOINT LeftForeArm
								{
									OFFSET 8.512804 0.000000 -0.000000
									CHANNELS 3 Xrotation Yrotation Zrotation
									JOINT LeftHand
									{
										OFFSET 18.484802 0.000000 -0.000000
										CHANNELS 3 Xrotation Yrotation Zrotation
										JOINT LeftHandThumb1
										{
											OFFSET 2.499420 -1.158070 2.653252
											CHANNELS 3 Xrotation Yrotation Zrotation
											JOINT LeftHandThumb2
											{
												OFFSET 2.370079 -1.368366 1.368366
												CHANNELS 3 Xrotation Yrotation Zrotation
												JOINT LeftHandThumb3
												{
													OFFSET 2.676727 -1.545410 1.545409
													CHANNELS 3 Xrotation Yrotation Zrotation
													JOINT LeftHandThumb4
													{
														OFFSET 1.692226 -0.977005 0.977007
														CHANNELS 3 Xrotation Yrotation Zrotation
														End Site
														{
															OFFSET 0.000000 0.000000 0.000000
														}
													}
												}
											}
										}
										JOINT LeftHandIndex1
										{
											OFFSET 7.924831 -0.457527 2.345128
											CHANNELS 3 Xrotation Yrotation Zrotation
											JOINT LeftHandIndex2
											{
												OFFSET 3.643303 0.000000 0.000000
												CHANNELS 3 Xrotation Yrotation Zrotation
												JOINT LeftHandIndex3
												{
													OFFSET 3.810799 0.000000 0.000000
													CHANNELS 3 Xrotation Yrotation Zrotation
													JOINT LeftHandIndex4
													{
														OFFSET 2.403702 0.000000 0.000000
														CHANNELS 3 Xrotation Yrotation Zrotation
														End Site
														{
															OFFSET 0.000000 0.000000 0.000000
														}
													}
												}
											}
										}
										JOINT LeftHandMiddle1
										{
											OFFSET 8.563995 0.000000 -0.000000
											CHANNELS 3 Xrotation Yrotation Zrotation
											JOINT LeftHandMiddle2
											{
												OFFSET 3.861618 0.000000 0.000000
												CHANNELS 3 Xrotation Yrotation Zrotation
												JOINT LeftHandMiddle3
												{
													OFFSET 3.701603 0.000000 0.000000
													CHANNELS 3 Xrotation Yrotation Zrotation
													JOINT LeftHandMiddle4
													{
														OFFSET 2.322544 0.000000 0.000000
														CHANNELS 3 Xrotation Yrotation Zrotation
														End Site
														{
															OFFSET 0.000000 0.000000 0.000000
														}
													}
												}
											}
										}
										JOINT LeftHandRing1
										{
											OFFSET 8.426460 -0.424637 -3.286992
											CHANNELS 3 Xrotation Yrotation Zrotation
											JOINT LeftHandRing2
											{
												OFFSET 3.126408 0.000000 0.000000
												CHANNELS 3 Xrotation Yrotation Zrotation
												JOINT LeftHandRing3
												{
													OFFSET 3.085026 0.000000 0.000000
													CHANNELS 3 Xrotation Yrotation Zrotation
													JOINT LeftHandRing4
													{
														OFFSET 1.644005 0.000000 0.000000
														CHANNELS 3 Xrotation Yrotation Zrotation
														End Site
														{
															OFFSET 0.000000 0.000000 0.000000
														}
													}
												}
											}
										}
									}
								}
							}
						}
					}
					JOINT RightShoulder
					{
						OFFSET -2.196100 4.412496 0.070690
						CHANNELS 3 Xrotation Yrotation Zrotation
						JOINT RightShoulder_split
						{
							OFFSET -2.196100 4.412496 0.070690
							CHANNELS 3 Xrotation Yrotation Zrotation
							JOINT RightArm
							{
								OFFSET -8.771282 -2.981682 -0.094208
								CHANNELS 3 Xrotation Yrotation Zrotation
								JOINT RightForeArm
								{
									OFFSET -8.494598 0.000000 0.000000
									CHANNELS 3 Xrotation Yrotation Zrotation
									JOINT RightHand
									{
										OFFSET -18.483803 0.000000 0.000001
										CHANNELS 3 Xrotation Yrotation Zrotation
										JOINT RightHandThumb1
										{
											OFFSET -2.527351 -1.008072 2.575253
											CHANNELS 3 Xrotation Yrotation Zrotation
											JOINT RightHandThumb2
											{
												OFFSET -2.321518 -1.340328 1.340329
												CHANNELS 3 Xrotation Yrotation Zrotation
												JOINT RightHandThumb3
												{
													OFFSET -2.657753 -1.534454 1.534455
													CHANNELS 3 Xrotation Yrotation Zrotation
													JOINT RightHandThumb4
													{
														OFFSET -1.807510 -1.043568 1.043567
														CHANNELS 3 Xrotation Yrotation Zrotation
														End Site
														{
															OFFSET 0.000000 0.000000 0.000000
														}
													}
												}
											}
										}
										JOINT RightHandIndex1
										{
											OFFSET -8.811420 0.015533 2.887987
											CHANNELS 3 Xrotation Yrotation Zrotation
											JOINT RightHandIndex2
											{
												OFFSET -3.537502 0.000000 0.000000
												CHANNELS 3 Xrotation Yrotation Zrotation
												JOINT RightHandIndex3
												{
													OFFSET -3.356201 0.000000 0.000000
													CHANNELS 3 Xrotation Yrotation Zrotation
													JOINT RightHandIndex4
													{
														OFFSET -1.933098 0.000000 0.000000
														CHANNELS 3 Xrotation Yrotation Zrotation
														End Site
														{
															OFFSET 0.000000 0.000000 0.000000
														}
													}
												}
											}
										}
										JOINT RightHandMiddle1
										{
											OFFSET -8.178135 0.000000 0.000000
											CHANNELS 3 Xrotation Yrotation Zrotation
											JOINT RightHandMiddle2
											{
												OFFSET -3.901302 0.000000 0.000000
												CHANNELS 3 Xrotation Yrotation Zrotation
												JOINT RightHandMiddle3
												{
													OFFSET -3.909599 0.000000 0.000000
													CHANNELS 3 Xrotation Yrotation Zrotation
													JOINT RightHandMiddle4
													{
														OFFSET -2.376003 0.000000 0.000000
														CHANNELS 3 Xrotation Yrotation Zrotation
														End Site
														{
															OFFSET 0.000000 0.000000 0.000000
														}
													}
												}
											}
										}
										JOINT RightHandRing1
										{
											OFFSET -7.559013 0.014137 -2.865403
											CHANNELS 3 Xrotation Yrotation Zrotation
											JOINT RightHandRing2
											{
												OFFSET -3.449306 0.000000 0.000000
												CHANNELS 3 Xrotation Yrotation Zrotation
												JOINT RightHandRing3
												{
													OFFSET -3.362106 0.000000 0.000000
													CHANNELS 3 Xrotation Yrotation Zrotation
													JOINT RightHandRing4
													{
														OFFSET -2.076401 0.000000 0.000000
														CHANNELS 3 Xrotation Yrotation Zrotation
														End Site
														{
															OFFSET 0.000000 0.000000 0.000000
														}
													}
												}
											}
										}
									}
								}
							}
						}
					}
				}
			}
		}
	}
	JOINT LeftUpLeg
	{
		OFFSET 10.205400 -3.823500 0.155100
		CHANNELS 3 Xrotation Yrotation Zrotation
		JOINT LeftLeg
		{
			OFFSET 0.708757 -12.982077 0.567790
			CHANNELS 3 Xrotation Yrotation Zrotation
			JOINT LeftFoot
			{
				OFFSET -0.708756 -10.717838 -2.184338
				CHANNELS 3 Xrotation Yrotation Zrotation
				JOINT LeftToeBase
				{
					OFFSET 0.108149 -7.191104 7.560241
					CHANNELS 3 Xrotation Yrotation Zrotation
					JOINT LeftToe_End
					{
						OFFSET 0.070230 0.081724 4.490308
						CHANNELS 3 Xrotation Yrotation Zrotation
						End Site
						{
							OFFSET 0.000000 0.000000 0.000000
						}
					}
				}
			}
		}
	}
	JOINT RightUpLeg
	{
		OFFSET -10.205400 -3.823500 0.005500
		CHANNELS 3 Xrotation Yrotation Zrotation
		JOINT RightLeg
		{
			OFFSET -0.708756 -12.982134 0.610632
			CHANNELS 3 Xrotation Yrotation Zrotation
			JOINT RightFoot
			{
				OFFSET 0.708754 -10.717769 -1.945823
				CHANNELS 3 Xrotation Yrotation Zrotation
				JOINT RightToeBase
				{
					OFFSET -0.108140 -7.191069 7.372968
					CHANNELS 3 Xrotation Yrotation Zrotation
					JOINT RightToe_End
					{
						OFFSET -0.070227 0.081735 4.479403
						CHANNELS 3 Xrotation Yrotation Zrotation
						End Site
						{
							OFFSET 0.000000 0.000000 0.000000
						}
					}
				}
			}
		}
	}
}
MOTION
Frames: 4
Frame Time: 0.016667
0.343316 31.391342 -1.513861 2.061866 -10.231309 -1.601607 21.587457 5.522279 1.259889 2.971775 1.798109 -0.052722 0.000000 0.000000 0.000000 2.970856 1.873018 -0.065766 -3.972169 15.157916 2.233331 6.503270 46.829064 -20.357741 0.000001 -0.000000 0.000001 1.350316 -32.914019 3.985058 0.000000 0.000000 0.000000 -22.769923 -14.531415 -67.625956 0.000016 -44.195719 -9.360761 -35.824400 -9.101351 -6.762444 -7.471943 1.860683 -7.166929 30.987001 27.310540 -4.510891 83.254651 13.297887 -10.940226 -0.000006 -0.000002 -0.000000 -4.686325 11.374165 -75.574179 -0.816401 3.074001 -46.874639 -4.740626 0.379159 -78.699475 0.000001 -0.000002 0.000004 1.616599 16.582676 -84.688813 0.018016 0.022047 -72.884853 -1.306128 -0.091041 -19.943114 -0.000005 -0.000003 -0.000000 -7.765829 20.752823 -77.737778 0.013355 0.983452 -51.003598 6.778237 8.421299 -40.137887 0.000001 0.000000 0.000001 9.555404 22.112638 -11.863561 0.000000 0.000000 0.000000 -43.977840 10.617619 77.773008 0.000018 50.389058 2.241407 -28.429771 16.642767 6.785474 9.347166 2.810569 -11.364514 16.169068 -43.266025 15.843563 32.491876 -44.566776 5.661159 0.000001 -0.000002 -0.000000 17.076791 -0.396533 31.924335 -0.204404 -0.284222 112.811550 1.553154 -1.173026 33.344543 0.000000 -0.000001 0.000001 9.205487 -5.035878 102.738080 0.014987 -0.019187 61.018506 1.871339 0.346198 31.443790 0.000002 -0.000001 0.000001 5.569158 -8.935213 107.329094 0.547997 -0.005793 41.263697 0.739137 0.837860 51.122241 -0.000001 -0.000001 -0.000001 -45.478217 -0.802784 11.306453 42.051767 -1.133134 2.149421 1.798605 0.883906 -7.782993 -0.380454 -1.204942 -0.210151 0.000000 -0.000000 -0.000000 -3.034648 -11.763977 -14.900824 34.953029 -6.833938 3.552853 -28.426274 -6.808371 16.467198 -1.190567 0.353829 0.637201 0.000000 -0.000002 -0.000000 
0.363544 31.386723 -1.434542 2.140351 -9.843121 -1.587376 21.542869 5.517228 1.011094 2.951615 1.865109 -0.160995 0.000000 0.000000 0.000000 2.950948 1.939449 -0.175154 -4.099830 15.090193 2.372694 6.098624 46.772907 -19.938097 -0.000000 -0.000002 0.000000 1.306154 -33.191311 4.056580 0.000000 0.000000 0.000000 -22.439101 -14.543414 -67.584790 0.000049 -44.463698 -8.793755 -35.436654 -8.587733 -7.126242 -7.471940 1.860684 -7.166937 30.987008 27.310540 -4.510888 83.254644 13.297887 -10.940226 0.000000 0.000001 -0.000000 -4.686390 11.374048 -75.571166 -0.816411 3.074002 -46.874632 -4.740627 0.379158 -78.699468 0.000000 0.000001 0.000001 1.616616 16.582665 -84.688820 0.018017 0.022049 -72.884853 -1.306108 -0.091040 -19.943104 0.000000 -0.000002 0.000003 -7.759343 20.770697 -77.712724 0.013329 0.983474 -51.003594 6.778256 8.421306 -40.137900 -0.000002 0.000000 -0.000002 9.474285 21.562339 -11.639583 0.000000 0.000000 0.000000 -44.239060 10.875466 78.236798 0.000041 50.076396 2.035007 -28.523171 16.871177 6.756822 9.347169 2.810563 -11.364522 16.169068 -43.266031 15.843553 32.491859 -44.566776 5.661155 -0.000002 -0.000003 -0.000001 17.076789 -0.396534 31.924335 -0.204404 -0.284223 112.811557 1.553155 -1.173027 33.344546 0.000000 0.000001 0.000001 9.205484 -5.035881 102.738087 0.014992 -0.019189 61.018499 1.871339 0.346202 31.443790 0.000001 -0.000000 -0.000002 5.569156 -8.935213 107.329101 0.547997 -0.005794 41.263700 0.739137 0.837856 51.122241 -0.000001 0.000002 0.000002 -45.649050 -0.781325 10.993835 42.143650 -1.315638 2.225903 1.751091 0.865794 -7.627357 -0.389911 -1.257104 -0.209094 0.000000 0.000000 -0.000000 -2.444586 -11.899117 -14.843449 34.423651 -7.180989 3.544506 -28.385332 -6.911103 16.746089 -1.185560 0.325696 0.665613 0.000000 0.000003 0.000000 
0.381727 31.380939 -1.355110 2.219371 -9.479632 -1.558425 21.493997 5.493265 0.756468 2.933350 1.930218 -0.273806 0.000000 0.000000 0.000000 2.932957 2.004092 -0.288580 -4.241899 15.007606 2.532610 5.637717 46.665983 -19.447724 -0.000001 0.000001 -0.000000 1.253888 -33.456842 4.134844 0.000000 0.000000 0.000000 -22.076228 -14.578436 -67.548160 0.000019 -44.717037 -8.228629 -35.111578 -8.142422 -7.495864 -7.471940 1.860687 -7.166926 30.987004 27.310546 -4.510892 83.254644 13.297887 -10.940222 -0.000002 -0.000000 -0.000002 -4.686469 11.373947 -75.568100 -0.816404 3.074002 -46.874635 -4.740624 0.379157 -78.699468 -0.000001 0.000000 -0.000002 1.616616 16.582666 -84.688813 0.018012 0.022036 -72.884874 -1.306131 -0.091052 -19.943112 0.000000 0.000001 0.000000 -7.752853 20.788977 -77.688163 0.013347 0.983441 -51.003601 6.778223 8.421316 -40.137887 -0.000000 0.000002 -0.000001 9.408134 21.067917 -11.442652 0.000000 0.000000 0.000000 -44.479879 11.089955 78.693410 0.000052 49.791010 1.848487 -28.571619 17.092977 6.703833 9.347160 2.810562 -11.364518 16.169069 -43.266028 15.843554 32.491872 -44.566783 5.661151 0.000001 -0.000001 0.000002 17.076789 -0.396534 31.924335 -0.204404 -0.284222 112.811550 1.553154 -1.173027 33.344543 0.000000 0.000000 -0.000001 9.205486 -5.035879 102.738087 0.014991 -0.019189 61.018499 1.871339 0.346202 31.443794 0.000002 -0.000000 0.000003 5.569157 -8.935214 107.329108 0.547997 -0.005794 41.263693 0.739138 0.837856 51.122238 -0.000001 0.000001 0.000001 -45.795858 -0.770730 10.693324 42.233163 -1.469644 2.274812 1.690303 0.848794 -7.476956 -0.394790 -1.284862 -0.208663 0.000000 -0.000000 0.000000 -1.902217 -12.056728 -14.802837 33.937584 -7.478594 3.508937 -28.361898 -7.013964 17.017117 -1.177283 0.301240 0.690923 0.000000 0.000000 0.000000 
0.397967 31.373745 -1.276092 2.298928 -9.139294 -1.517907 21.440966 5.464817 0.501829 2.917136 1.985256 -0.390848 0.000000 0.000000 0.000000 2.916593 2.058882 -0.406592 -4.390919 14.896783 2.706929 5.129820 46.544987 -18.898486 -0.000001 0.000001 -0.000001 1.216754 -33.714500 4.232030 0.000000 0.000000 0.000000 -21.704821 -14.643550 -67.511420 0.000003 -44.942518 -7.663750 -34.862891 -7.769626 -7.870576 -7.471938 1.860685 -7.166929 30.987008 27.310544 -4.510889 83.254644 13.297885 -10.940230 -0.000004 -0.000000 -0.000004 -4.686544 11.373837 -75.565033 -0.816405 3.074002 -46.874629 -4.740626 0.379156 -78.699468 -0.000002 -0.000001 -0.000002 1.616599 16.582666 -84.688820 0.018004 0.022047 -72.884874 -1.306131 -0.091032 -19.943095 0.000005 0.000001 0.000002 -7.746390 20.807555 -77.664046 0.013342 0.983454 -51.003604 6.778238 8.421312 -40.137887 -0.000001 -0.000001 -0.000001 9.352122 20.644015 -11.270557 0.000000 0.000000 0.000000 -44.692154 11.251952 79.128527 0.000023 49.534222 1.683164 -28.576072 17.303977 6.626691 9.347169 2.810567 -11.364520 16.169071 -43.266025 15.843568 32.491859 -44.566773 5.661160 0.000003 -0.000003 -0.000003 17.076791 -0.396534 31.924338 -0.204403 -0.284220 112.811550 1.553155 -1.173025 33.344543 -0.000000 0.000001 0.000001 9.205488 -5.035880 102.738080 0.014993 -0.019190 61.018499 1.871339 0.346201 31.443794 0.000002 0.000000 -0.000000 5.569158 -8.935215 107.329108 0.547997 -0.005793 41.263693 0.739137 0.837857 51.122241 0.000002 0.000000 0.000002 -45.938350 -0.716638 10.402244 42.329749 -1.637130 2.341625 1.615995 0.832425 -7.333658 -0.395719 -1.291653 -0.208753 0.000000 -0.000000 0.000000 -1.379456 -12.151292 -14.772120 33.497976 -7.801848 3.496814 -28.356053 -7.118030 17.282537 -1.223596 0.270158 0.714882 0.000000 0.000001 0.000000 
